<?xml version="1.0" standalone="no"?>
<!DOCTYPE svg PUBLIC "-//W3C//DTD SVG 20010904//EN"
 "http://www.w3.org/TR/2001/REC-SVG-20010904/DTD/svg10.dtd">
<svg version="1.0" xmlns="http://www.w3.org/2000/svg"
 width="512.000000pt" height="512.000000pt" viewBox="0 0 512.000000 512.000000"
 preserveAspectRatio="xMidYMid meet">

<g transform="translate(0.000000,512.000000) scale(0.100000,-0.100000)"
fill="#000000" stroke="none">
<path d="M78 5099 c-23 -12 -46 -35 -58 -59 -20 -39 -20 -51 -18 -2089 l3
-2050 21 -27 c11 -15 33 -37 48 -48 27 -21 30 -21 1501 -24 l1474 -2 3 -349
c3 -335 4 -351 24 -377 32 -44 68 -66 115 -71 40 -4 63 5 269 107 l225 112
226 -112 c209 -104 230 -112 270 -107 46 6 81 28 113 71 20 26 21 42 24 376
l3 349 349 3 c334 3 350 4 376 24 15 11 37 33 48 48 l21 27 3 2050 c2 2039 2
2050 -18 2089 -13 26 -34 47 -60 60 -39 20 -53 20 -2482 20 -2413 -1 -2443 -1
-2480 -21z m4742 -2139 l0 -1860 -250 0 -250 0 0 172 0 171 30 46 c86 135 124
268 123 436 0 100 -5 135 -27 210 -80 269 -284 470 -553 547 -102 29 -303 31
-403 4 -489 -132 -738 -672 -514 -1117 20 -41 45 -86 55 -101 17 -23 19 -46
19 -197 l0 -171 -1375 0 -1375 0 0 1860 0 1860 2260 0 2260 0 0 -1860z m-1020
-566 c251 -57 419 -319 366 -572 -49 -235 -243 -393 -484 -393 -192 0 -354
102 -437 274 -91 186 -60 394 79 544 126 136 296 188 476 147z m-356 -1230
c153 -48 329 -48 482 1 44 13 82 25 87 25 4 0 7 -178 7 -395 0 -260 -3 -395
-10 -395 -6 0 -73 32 -150 70 -94 47 -151 70 -175 70 -24 0 -81 -23 -175 -70
-77 -38 -144 -70 -150 -70 -7 0 -10 135 -10 395 0 217 3 395 8 395 4 0 43 -12
86 -26z"/>
<path d="M1560 4151 c-78 -24 -114 -78 -108 -157 4 -47 10 -61 42 -92 l36 -37
1030 0 1030 0 36 37 c31 30 38 45 42 89 6 64 -15 109 -67 142 l-36 22 -990 2
c-545 1 -1001 -2 -1015 -6z"/>
<path d="M1039 3329 c-102 -59 -96 -202 11 -256 l44 -23 1466 0 1466 0 44 23
c80 40 108 135 62 210 -45 72 76 67 -1574 67 l-1483 0 -36 -21z"/>
<path d="M1060 2699 c-127 -51 -125 -230 3 -278 19 -7 249 -11 698 -11 646 0
671 1 708 20 41 21 81 85 81 130 0 45 -40 109 -81 130 -37 19 -61 20 -711 19
-421 0 -682 -4 -698 -10z"/>
<path d="M1072 2063 c-35 -7 -89 -64 -101 -108 -7 -27 -7 -50 -1 -75 13 -45
27 -62 70 -89 35 -21 40 -21 713 -21 745 0 723 -2 768 61 18 25 24 47 24 86 0
56 -18 90 -69 127 -27 21 -37 21 -704 22 -372 1 -687 -1 -700 -3z"/>
</g>
</svg>
