<?xml version="1.0" standalone="no"?>
<!DOCTYPE svg PUBLIC "-//W3C//DTD SVG 20010904//EN"
 "http://www.w3.org/TR/2001/REC-SVG-20010904/DTD/svg10.dtd">
<svg version="1.0" xmlns="http://www.w3.org/2000/svg"
 width="512.000000pt" height="512.000000pt" viewBox="0 0 512.000000 512.000000"
 preserveAspectRatio="xMidYMid meet">

<g transform="translate(0.000000,512.000000) scale(0.100000,-0.100000)"
fill="#000000" stroke="none">
<path d="M1116 5104 c-350 -63 -639 -356 -701 -709 -23 -132 -23 -2738 0
-2870 63 -357 353 -647 710 -710 69 -12 172 -15 476 -15 l388 0 216 -362 c120
-200 232 -377 250 -395 59 -56 151 -56 210 0 18 18 130 195 250 395 l216 362
388 0 c303 0 408 3 476 15 357 63 647 353 710 710 23 132 23 2738 0 2870 -63
358 -352 647 -710 710 -126 22 -2757 21 -2879 -1z m2830 -315 c212 -38 405
-231 443 -443 15 -83 15 -2689 0 -2772 -38 -212 -231 -405 -443 -443 -37 -7
-230 -11 -497 -11 -451 0 -473 -2 -516 -42 -12 -11 -99 -150 -195 -309 -95
-159 -175 -289 -178 -289 -3 0 -83 130 -178 289 -96 159 -183 298 -195 309
-43 40 -65 42 -516 42 -264 0 -461 4 -497 11 -96 17 -213 80 -289 157 -76 76
-137 188 -154 286 -15 83 -15 2689 0 2772 17 98 78 210 154 286 73 74 192 140
280 156 73 14 2705 15 2781 1z"/>
<path d="M1685 4371 c-16 -10 -121 -110 -231 -222 -145 -147 -209 -219 -228
-257 -79 -157 -79 -369 0 -610 34 -102 139 -319 205 -423 349 -550 925 -1034
1428 -1199 258 -85 479 -78 630 20 25 16 137 120 248 232 166 167 203 210 212
243 23 86 21 88 -357 467 -449 448 -404 437 -673 171 l-165 -163 -90 59 c-159
105 -372 326 -441 458 l-28 53 161 162 c89 90 167 173 173 185 14 28 14 98 0
126 -16 31 -668 685 -701 703 -38 20 -107 18 -143 -5z m275 -566 l194 -195
-126 -128 c-73 -73 -134 -144 -143 -165 -62 -150 49 -378 319 -656 277 -284
538 -410 691 -333 17 8 86 70 155 138 l126 124 197 -198 197 -198 -127 -125
c-118 -116 -132 -127 -182 -139 -258 -61 -750 197 -1162 609 -341 342 -567
717 -608 1011 -6 42 -8 85 -6 95 2 11 7 38 10 60 6 34 25 58 133 168 69 70
129 127 132 127 3 0 93 -88 200 -195z"/>
</g>
</svg>
